<svg width="552" height="493" viewBox="0 0 552 493" fill="none" xmlns="http://www.w3.org/2000/svg">
<path d="M463.208 51.4697C492.273 82.0482 497.49 135.001 514.258 191.31C531.027 247.992 558.974 308.031 550.404 369.188C541.461 430.345 495.999 492.62 443.831 492.993C391.289 493.739 332.041 432.209 261.986 404.987C191.558 377.765 110.324 384.85 59.6459 348.678C8.96778 312.506 -11.5271 233.822 6.35934 166.698C24.2457 99.9478 80.5134 44.7574 140.507 19.3996C200.501 -5.95816 264.222 -1.48325 322.725 5.2291C381.228 11.9414 434.142 20.5183 463.208 51.4697Z" fill="url(#paint0_linear)"/>
<defs>
<linearGradient id="paint0_linear" x1="452.041" y1="575.566" x2="887.42" y2="162.11" gradientUnits="userSpaceOnUse">
<stop stop-color="#E53C38"/>
<stop offset="1" stop-color="#FCDCC3"/>
</linearGradient>
</defs>
</svg>
